<?xml version="1.0" encoding="UTF-8"?>
<svg id="Layer_1" data-name="Layer 1" xmlns="http://www.w3.org/2000/svg" viewBox="0 0 706.07 695.51">
  <defs>
    <style>
      .cls-1 {
        fill: #F4B400;
      }

      .cls-2 {
        fill: #ce2027;
      }

      .cls-3 {
        fill: #fff;
      }

      .cls-4 {
        fill: #0B2A55;
      }
    </style>
  </defs>
  <path fill="#ce2027" d="M540.8,324.26c-7.19,22-18.38,46.04-31.81,70.6-1.6,2.93-3.24,5.86-4.91,8.8-.24.45-.49.9-.76,1.33-6.31,11.13-13.04,22.31-20.01,33.39-.56.9-1.13,1.8-1.71,2.7-4.91,7.77-9.95,15.51-15.05,23.14-2.21,3.35-4.46,6.66-6.72,9.95-2.66,3.93-5.33,7.79-8.01,11.63-.81,1.17-1.64,2.34-2.45,3.51-1.52,2.16-3.03,4.32-4.54,6.44-1.19,1.66-2.36,3.31-3.54,4.97-45.57,63.77-88.28,113.23-88.28,113.23l-.08-.09-60.06-75.72-68.74-86.99,129.78-126.88h186.88Z"/>
  <path fill="#ce2027" d="M352.94,613.85c-1.6-1.86-27.76-32.31-60.48-75.51.14-.06.28-.13.42-.2l60.06,75.72Z"/>
  <path fill="#0B2A55" d="M156.6,276.36c0-1.01.02-2.01.05-3.01-.01.46-.02.91-.02,1.37-.02.55-.03,1.1-.03,1.64Z"/>
  <path fill="#0B2A55" d="M156.7,282.33c0,.18,0,.37.02.56-.03-.41-.04-.82-.06-1.22,0,.23.02.44.04.66Z"/>
  <path fill="#0B2A55" d="M156.69,271.66c.02-.46.04-.92.06-1.38-.01.28-.02.56-.03.84-.01.11-.01.23-.01.34,0,.07,0,.13-.01.2Z"/>
  <path fill="#0B2A55" d="M156.82,268.51c-.03.59-.05,1.18-.08,1.77.02-.59.05-1.19.08-1.77Z"/>
  <path fill="#0B2A55" d="M156.82,284.54c.01.19.02.39.04.58-.04-.56-.08-1.13-.11-1.68.02.37.05.73.07,1.11Z"/>
  <path fill="#0B2A55" d="M156.83,268.28c.02-.44.04-.89.07-1.33-.02.37-.04.74-.06,1.11,0,.07,0,.15-.01.23Z"/>
  <path fill="#0B2A55" d="M156.97,265.79c.04-.63.08-1.25.12-1.88-.07.99-.13,1.99-.19,2.99.02-.37.04-.74.07-1.11Z"/>
  <path fill="#0B2A55" d="M157.24,262.04c.04-.51.08-1.02.13-1.53-.11,1.09-.19,2.17-.27,3.26.05-.58.09-1.15.14-1.73Z"/>
  <path fill="#0B2A55" d="M157.82,256.07s-.01.04-.01.05c.09-.9.2-1.8.32-2.71,0,0,0,.02,0,.03-.11.87-.21,1.75-.3,2.63Z"/>
  <path fill="#0B2A55" d="M158.18,296.06s0,.04,0,.07c-.23-1.4-.44-2.79-.62-4.17.11.75.21,1.49.32,2.26.09.59.18,1.19.29,1.78v.06Z"/>
  <path fill="#0B2A55" d="M158.77,299.42c.06.3.11.61.17.92-.28-1.42-.54-2.83-.75-4.21,0,.02.01.04.01.07.18,1.06.36,2.14.57,3.22Z"/>
  <path fill="#0B2A55" d="M159.13,301.26c.04.21.08.45.13.68-.11-.54-.22-1.07-.32-1.6.06.3.12.61.19.92Z"/>
  <path fill="#0B2A55" d="M159.45,302.88c.04.22.09.43.13.65-.08-.36-.16-.71-.23-1.06.03.14.06.28.09.42Z"/>
  <path fill="#0B2A55" d="M160.23,240.23c-.34,1.74-.66,3.51-.95,5.25-.29,1.77-.56,3.54-.81,5.31.55-4,1.22-7.96,2.02-11.88-.08.44-.17.87-.25,1.31Z"/>
  <path fill="#0B2A55" d="M161.06,309.79c.07.3.14.59.22.89-.51-1.97-.98-3.9-1.4-5.83.05.22.1.44.16.66.06.25.13.52.18.78.12.58.27,1.17.41,1.76.15.58.29,1.16.44,1.75Z"/>
  <path fill="#0B2A55" d="M161.99,313.36c.28,1.02.58,2.05.87,3.09-.56-1.94-1.09-3.87-1.58-5.77.23.89.47,1.78.71,2.68Z"/>
  <path fill="#0B2A55" d="M163.48,318.59c.46,1.53.94,3.07,1.44,4.63-.32-1-.62-2-.93-2.99-.17-.54-.34-1.09-.51-1.64Z"/>
  <path fill="#0B2A55" d="M163.99,224.45c-.29,1.02-.58,2.05-.85,3.08-.04.13-.08.25-.11.38.4-1.53.82-3.05,1.26-4.57-.11.37-.21.74-.31,1.11Z"/>
  <path fill="#0B2A55" d="M165.78,218.48c.63-2.02,1.3-4.01,2.01-5.99-.17.47-.33.94-.49,1.41-.44,1.25-.85,2.49-1.24,3.73-.09.28-.19.56-.28.85Z"/>
  <path fill="#0B2A55" d="M169.14,208.77c.07-.18.14-.37.2-.55-.05.15-.11.3-.16.44-.02.04-.04.07-.05.11Z"/>
  <path fill="#0B2A55" d="M169.8,207.04c.42-1.08.84-2.15,1.28-3.21-.3.75-.6,1.51-.88,2.26-.13.32-.27.63-.39.95Z"/>
  <path fill="#0B2A55" d="M175.36,194.12c.08-.18.17-.35.26-.53-.26.55-.54,1.1-.79,1.65.18-.37.35-.75.54-1.12Z"/>
  <path fill="#0B2A55" d="M175.62,193.59c.54-1.13,1.08-2.26,1.64-3.38-.56,1.12-1.11,2.25-1.64,3.38Z"/>
  <path fill="#0B2A55" d="M177.27,190.21c.65-1.31,1.32-2.6,2-3.89-.68,1.29-1.35,2.59-2,3.89Z"/>
  <path fill="#0B2A55" d="M179.27,186.31c.54-1.02,1.09-2.04,1.64-3.04l-.25.49c-.47.85-.93,1.71-1.39,2.56Z"/>
  <path fill="#0B2A55" d="M187.91,171.57c1.04-1.61,2.1-3.2,3.19-4.77-.45.68-.94,1.39-1.42,2.12-.58.85-1.17,1.74-1.76,2.65Z"/>
  <path fill="#0B2A55" d="M191.86,165.68c.61-.88,1.23-1.75,1.86-2.61-.04.06-.09.13-.13.2-.35.47-.7.97-1.1,1.54-.2.28-.41.58-.63.88Z"/>
  <path fill="#0B2A55" d="M549.48,277.99c0,13.75-3.15,29.41-8.68,46.27h-186.89,0s-156.31-160.46-156.31-160.46l-2.54-2.59h0c35.77-48.32,93.2-79.66,157.96-79.66,108.49,0,196.45,87.94,196.45,196.43Z"/>
  <path fill="#ffffff" d="M353.92,324.26h0s-127.26,124.59-127.26,124.59l-15.93-28.29c-.61.54-1.19-1.14-1.76-.58-19.78-33.1-34.06-66.23-43.69-95.71h0c-.12-.35-.23-.7-.35-1.05-.32-1-.62-2-.93-2.99-.17-.54-.34-1.09-.51-1.64-.16-.55-.32-1.1-.49-1.65-.04-.16-.09-.32-.14-.49-.29-1.04-.59-2.07-.87-3.09-.24-.9-.49-1.79-.71-2.68-.08-.3-.15-.59-.22-.89-.15-.59-.29-1.17-.44-1.75-.14-.59-.29-1.18-.41-1.76-.06-.25-.13-.52-.18-.78-.06-.22-.11-.44-.16-.66-.11-.44-.2-.88-.29-1.32-.04-.22-.09-.43-.13-.65-.03-.13-.06-.27-.09-.42-.04-.18-.08-.35-.11-.51-.05-.23-.09-.47-.13-.68-.07-.31-.13-.61-.19-.92-.06-.31-.11-.62-.17-.92-.21-1.08-.39-2.16-.57-3.22,0-.03,0-.05-.01-.07,0-.03,0-.04,0-.07v-.06c-.11-.59-.2-1.19-.29-1.78-.11-.76-.22-1.51-.32-2.26-.02-.17-.05-.35-.07-.51-.18-1.42-.33-2.8-.46-4.19-.07-.72-.13-1.43-.18-2.14-.01-.19-.02-.39-.04-.58-.02-.37-.05-.74-.07-1.11-.01-.18-.02-.37-.03-.55-.01-.19-.02-.37-.02-.56-.01-.22-.03-.44-.04-.66-.02-.33-.03-.66-.04-.99v-.1c-.01-.86-.04-1.73-.04-2.59,0-.54,0-1.09,0-1.64,0-.54,0-1.09.03-1.64,0-.46,0-.91.02-1.37,0-.48.02-.97.04-1.46,0-.08,0-.16,0-.23,0-.07.01-.13.01-.2,0-.11,0-.23.01-.34.02-.87.07-1.75.11-2.61,0-.07,0-.16,0-.23,0-.08.01-.16.01-.23.01-.37.04-.74.06-1.11v-.06c.02-.37.04-.74.07-1.11.04-.63.08-1.25.12-1.88,0-.04,0-.08,0-.13.05-.58.09-1.15.14-1.73.04-.51.08-1.02.13-1.53.06-.71.13-1.42.2-2.13.04-.38.07-.75.11-1.12.04-.37.08-.74.12-1.11,0-.01,0-.03,0-.04,0-.01,0-.03.01-.05.09-.88.2-1.76.3-2.63,0,0,0-.02,0-.03,0-.06,0-.11.02-.16h0c.11-.83.21-1.64.32-2.45.25-1.77.52-3.54.81-5.31.29-1.74.61-3.51.95-5.25.08-.44.17-.87.25-1.31.09-.44.18-.87.27-1.3.16-.75.33-1.52.49-2.27.03-.11.05-.21.07-.32.18-.76.35-1.52.52-2.27.27-1.13.54-2.25.83-3.38.12-.49.25-.99.38-1.47.03-.13.07-.25.11-.38.27-1.03.56-2.06.85-3.08.1-.37.2-.74.31-1.11.11-.37.21-.74.32-1.11.23-.78.47-1.55.7-2.3.15-.49.3-.97.46-1.45.09-.29.19-.57.28-.85.39-1.24.8-2.48,1.24-3.73.16-.47.32-.94.49-1.41.08-.23.16-.47.25-.7.17-.49.35-.99.53-1.47.17-.46.34-.9.5-1.35.02-.08.05-.14.08-.2.01-.04.03-.07.05-.11.05-.15.11-.3.16-.44.01-.02.02-.04.03-.06.14-.37.28-.75.43-1.11.13-.32.26-.63.39-.95.28-.75.58-1.51.88-2.26.25-.62.51-1.24.77-1.85.16-.39.32-.78.49-1.16.06-.14.12-.29.18-.43.15-.35.3-.68.44-1.03.1-.23.2-.46.31-.68.05-.12.11-.24.16-.36.24-.54.48-1.09.73-1.62.23-.49.44-.97.67-1.45.18-.37.35-.75.54-1.12,1.24-2.63,2.54-5.24,3.9-7.81.46-.85.92-1.71,1.39-2.56l.25-.49c.49-.89.99-1.77,1.49-2.64.05-.08.1-.17.15-.25.63-1.1,1.28-2.2,1.92-3.3.34-.54.66-1.09.99-1.63.61-.99,1.23-1.98,1.85-2.96.2-.3.39-.61.59-.92.59-.91,1.18-1.8,1.76-2.65.49-.73.97-1.44,1.42-2.12.26-.39.52-.75.77-1.11.23-.3.44-.6.63-.88.39-.56.75-1.06,1.1-1.54.04-.07.09-.14.13-.2.03-.04.05-.08.08-.11.33-.47.67-.92,1.01-1.38h.01c.08-.13.16-.24.25-.35l2.54,2.59,156.31,160.45Z"/>
  <path fill="#ffffff" d="M156.86,285.12c.05.71.11,1.42.18,2.14-.04-.29-.06-.58-.08-.87-.04-.42-.06-.85-.09-1.28Z"/>
  <path fill="#ffffff" d="M168.36,210.87c.07-.19.14-.37.2-.56-.18.49-.36.98-.53,1.47.11-.3.22-.61.32-.92Z"/>
  <path fill="#ffffff" d="M186.07,174.44c.42-.66.83-1.31,1.25-1.96-.63.98-1.24,1.97-1.85,2.96.2-.34.4-.67.61-1Z"/>
  <path fill="#ffffff" d="M194.81,161.58c-.34.46-.68.92-1.01,1.38.27-.41.54-.78.78-1.09.07-.1.14-.2.23-.29Z"/>
  <path id="path8227" fill="#F4B400" d="M281.06,355.87l-29.53-23.55-29.46,23.65,12.7-36.11-31.02-21.45,37.38,1.24,10.29-36.91,10.41,36.87,37.38-1.36-30.95,21.55,12.81,36.07Z"/>
  <path id="path4650" fill="#ffffff" d="M376.2,307.25c-3.44-3.46-5.21-6.78-4.9-9.2.06-.51.03-.92-.07-.92s-.74.31-1.42.68c-1.7.93-2.61,1.12-3.74.76-1.82-.57-3.43-3.07-4.42-6.88l-.42-1.6,2.46.15c5.45.32,8.57-1.7,9.24-5.97l.17-1.07h-1.89c-2.09,0-2.91-.42-3.74-1.89-.59-1.05-.58-1.94.03-3.1.66-1.25,1.82-1.84,3.61-1.84,1.11,0,1.48-.1,1.48-.4,0-.81-1.95-3.26-3.66-4.59-2.52-1.96-5.33-3.01-8.12-3.03-2.6-.02-3.8.46-4.35,1.72-.51,1.17-.48,4.34.06,6.19l.43,1.45-1.1.32c-4.05,1.17-7.13.22-10.09-3.11-2.89-3.25-4.4-8.03-4.18-13.21.3-6.91,3.55-11.51,8.94-12.67,3.76-.81,9.51.89,13.29,3.92,2.96,2.37,5.93,6.76,8.2,12.12,1.07,2.53,1.79,3.44,1.79,2.29,0-.26-.66-2.85-1.48-5.76-1.68-6.01-3.15-12.5-3.78-16.68-1.75-13.2.69-23.41,8.34-33.3l1.69-1.99c8.71,8.96,12.32,22.46,10.33,35.71-.74,4.49-1.74,8.86-3.45,15.13-.8,2.92-1.45,5.51-1.45,5.76,0,.96.73.38,1.49-1.18,1.75-3.6,4.07-7.18,6.51-10.03,4.07-4.75,6.46-6.08,10.94-6.1,4.23-.02,7.23,1.24,9.69,4.06,2.3,2.64,3.41,5.81,3.42,9.73,0,5.79-2.7,11.37-6.73,13.88-1.91,1.19-4.58,1.86-6.38,1.62l-1.35-.18v-2.92c0-2.67-.06-3.06-.72-4.59-.95-2.22-1.95-2.85-4.39-2.79-2.1.05-3.84.82-6.8,2.98-2.28,1.67-5.2,4.62-5.2,5.25,0,.31.42.4,1.83.4,2.71,0,4.24,1.21,4.24,3.34,0,2.36-1.37,3.49-4.23,3.49-1.78,0-1.85.02-1.85.68,0,.97,1.79,3.98,2.97,5,1.75,1.51,3.41,2.08,6.07,2.1,1.3,0,2.37.08,2.37.16,0,.45-.94,2.95-1.63,4.35-1.46,2.96-3.54,4.33-5.52,3.65-.54-.19-1.46-.65-2.04-1.02-.58-.38-1.14-.69-1.24-.69s-.23.64-.3,1.42c-.2,2.45-1.46,4.96-3.96,7.9-1.23,1.45-2.39,2.63-2.57,2.63-.19,0-1.28-.95-2.42-2.1h0Z"/>
  <path id="path5537" fill="#ffffff" d="M442.64,236.63c-3.44-3.46-5.21-6.78-4.9-9.2.06-.51.03-.92-.07-.92s-.74.31-1.42.68c-1.7.93-2.61,1.12-3.74.76-1.82-.57-3.43-3.07-4.42-6.88l-.42-1.6,2.46.15c5.45.32,8.57-1.7,9.23-5.97l.17-1.07h-1.89c-2.09,0-2.91-.42-3.74-1.89-.59-1.05-.58-1.94.03-3.1.66-1.25,1.82-1.84,3.61-1.84,1.11,0,1.48-.1,1.48-.4,0-.81-1.95-3.26-3.66-4.59-2.52-1.96-5.33-3.01-8.12-3.03-2.6-.02-3.8.46-4.35,1.72-.51,1.17-.48,4.34.06,6.19l.43,1.45-1.1.32c-4.05,1.17-7.13.22-10.09-3.11-2.89-3.25-4.4-8.03-4.18-13.21.3-6.91,3.55-11.51,8.94-12.67,3.76-.81,9.51.89,13.29,3.92,2.96,2.37,5.93,6.76,8.2,12.12,1.07,2.53,1.79,3.44,1.79,2.29,0-.26-.66-2.85-1.48-5.76-1.68-6.01-3.15-12.5-3.78-16.68-1.75-13.2.69-23.41,8.34-33.3l1.69-1.99c8.71,8.96,12.32,22.46,10.33,35.71-.74,4.49-1.74,8.86-3.45,15.13-.8,2.92-1.45,5.51-1.45,5.76,0,.96.73.38,1.49-1.18,1.75-3.6,4.07-7.18,6.51-10.03,4.07-4.75,6.46-6.08,10.94-6.1,4.23-.02,7.23,1.24,9.69,4.06,2.3,2.64,3.41,5.81,3.42,9.73,0,5.79-2.7,11.37-6.73,13.88-1.91,1.19-4.58,1.86-6.38,1.62l-1.35-.18v-2.92c0-2.67-.06-3.06-.72-4.59-.95-2.22-1.95-2.85-4.39-2.79-2.1.05-3.84.82-6.8,2.98-2.28,1.67-5.2,4.62-5.2,5.25,0,.31.42.4,1.83.4,2.71,0,4.24,1.21,4.24,3.34,0,2.36-1.37,3.49-4.23,3.49-1.78,0-1.85.02-1.85.68,0,.97,1.79,3.98,2.97,5,1.75,1.51,3.41,2.08,6.07,2.1,1.3,0,2.37.08,2.37.16,0,.45-.94,2.95-1.63,4.35-1.46,2.96-3.54,4.33-5.52,3.65-.54-.19-1.46-.65-2.04-1.02-.58-.38-1.14-.69-1.24-.69s-.23.64-.3,1.42c-.2,2.45-1.46,4.96-3.96,7.9-1.23,1.45-2.39,2.63-2.57,2.63-.19,0-1.28-.95-2.42-2.1h0Z"/>
  <path id="path5539" fill="#ffffff" d="M334.53,202.7c-3.44-3.46-5.21-6.78-4.9-9.2.06-.51.03-.92-.07-.92s-.74.31-1.42.68c-1.7.93-2.61,1.12-3.74.76-1.82-.57-3.43-3.07-4.42-6.88l-.42-1.6,2.46.15c5.45.32,8.57-1.7,9.23-5.97l.17-1.07h-1.89c-2.09,0-2.91-.42-3.74-1.89-.59-1.05-.58-1.94.03-3.1.66-1.25,1.82-1.84,3.61-1.84,1.11,0,1.48-.1,1.48-.4,0-.81-1.95-3.26-3.66-4.59-2.52-1.96-5.33-3.01-8.12-3.03-2.6-.02-3.8.46-4.35,1.72-.51,1.17-.48,4.34.06,6.19l.43,1.45-1.1.32c-4.05,1.17-7.13.22-10.09-3.11-2.89-3.25-4.4-8.03-4.18-13.21.3-6.91,3.55-11.51,8.94-12.67,3.76-.81,9.51.89,13.29,3.92,2.96,2.37,5.93,6.76,8.2,12.12,1.07,2.53,1.79,3.44,1.79,2.29,0-.26-.66-2.85-1.48-5.76-1.68-6.01-3.15-12.5-3.78-16.68-1.75-13.2.69-23.41,8.34-33.3l1.69-1.99c8.71,8.96,12.32,22.46,10.33,35.71-.74,4.49-1.74,8.86-3.45,15.13-.8,2.92-1.45,5.51-1.45,5.76,0,.96.73.38,1.49-1.18,1.75-3.6,4.07-7.18,6.51-10.03,4.07-4.75,6.46-6.08,10.94-6.1,4.23-.02,7.23,1.24,9.69,4.06,2.3,2.64,3.41,5.81,3.42,9.73,0,5.79-2.7,11.37-6.73,13.88-1.91,1.19-4.58,1.86-6.38,1.62l-1.35-.18v-2.92c0-2.67-.06-3.06-.72-4.59-.95-2.22-1.95-2.85-4.39-2.79-2.1.05-3.84.82-6.8,2.98-2.28,1.67-5.2,4.62-5.2,5.25,0,.31.42.4,1.83.4,2.71,0,4.24,1.21,4.24,3.34,0,2.36-1.37,3.49-4.23,3.49-1.78,0-1.85.02-1.85.68,0,.97,1.79,3.98,2.97,5,1.75,1.51,3.41,2.08,6.07,2.1,1.3,0,2.37.08,2.37.16,0,.45-.94,2.95-1.63,4.35-1.46,2.96-3.54,4.33-5.52,3.65-.54-.19-1.46-.65-2.04-1.02-.58-.38-1.14-.69-1.24-.69s-.23.64-.3,1.42c-.2,2.45-1.46,4.96-3.96,7.9-1.23,1.45-2.39,2.63-2.57,2.63-.19,0-1.28-.95-2.42-2.1h0Z"/>
  <path id="rect6490" fill="#F4B400" d="M451.2,339.76v9.97h5.65v-9.97h-5.65ZM428.56,349.73v86.08c2.88-4.95,8.14-8.28,14.16-8.28s11.25,3.33,14.13,8.28v-86.08h-28.29ZM382.09,403.65v70.52h44.15v-29.71c0-.45.02-.92.05-1.37.2-2.65,1.01-5.13,2.27-7.27,2.88-4.95,8.14-8.28,14.16-8.28s11.25,3.33,14.13,8.28c1.26,2.14,2.07,4.63,2.27,7.27.05.45.07.92.07,1.37v29.71h.65c2.25-3.29,4.5-6.61,6.71-9.95,5.09-7.63,10.13-15.37,15.05-23.15.58-.9,1.15-1.8,1.71-2.7,6.97-11.09,13.7-22.26,20.01-33.39l.76-1.33h-121.99ZM422.91,349.73v9.94h39.6v-9.94h-39.6ZM428.56,339.76v9.97h5.67v-9.97h-5.67ZM439.88,339.76v9.97h5.65v-9.97h-5.65ZM376.44,393.68v9.97h33.95v-9.97h-33.95ZM382.09,383.73v9.95h5.65v-9.95h-5.65ZM393.41,383.73v9.95h5.65v-9.95h-5.65ZM404.71,383.73v9.95h5.67v-9.95h-5.67ZM475.03,393.68v9.97h29.05c1.67-2.93,3.31-5.87,4.91-8.8v-1.17h-33.96ZM475.03,383.73v9.95h5.67v-9.95h-5.67ZM486.36,383.73v9.95h5.69v-9.95h-5.69ZM497.68,383.73v9.95h5.65v-9.95h-5.65ZM376.44,464.22v9.95h49.8v-9.95h-49.8ZM459.2,464.22v9.95h.65c2.25-3.29,4.5-6.61,6.71-9.95h-7.36Z"/>
  <path fill="#0B2A55" d="M227.17,448.35c-.9.82-2.12,1.97-3.02,2.79-22.02-36.71-45.56-75.06-58.59-116.09-4-12.6-5.82-25.76-7.37-38.85,0-.05-.02-.09-.02-.14v-.05c-1.58-13.26-1.71-26.62-.38-39.85,0-.04,0-.05.02-.09.07-.77.16-1.53.25-2.3,0-.11.02-.22.05-.32-.02-.07-.02-.13.02-.2,2.75-24.01,10.3-47.55,22.52-69.49.59-1.13,1.24-2.27,1.89-3.38.63-1.1,1.28-2.2,1.93-3.29.54-.88,1.06-1.76,1.6-2.63.41-.67.83-1.31,1.24-1.96.79-1.22,1.58-2.43,2.36-3.56.49-.74.97-1.44,1.42-2.12.49-.72.97-1.39,1.4-2,.4-.56.76-1.06,1.1-1.53.04-.07.09-.14.13-.2.31-.45.59-.86.86-1.21.07-.11.14-.22.23-.31.61-.9.97-1.39,1.01-1.4l.04.02,2.84,2.12s-.41.58-1.1,1.51c-1.51,2.11-4.39,6.17-7.27,10.64-14.5,22.47-24.25,47.96-28.04,74.44-5.95,41.56,3.74,84.32,22.14,121.66,6.94,14.08,14.09,28.12,21.55,41.94,1.74,3.23,21.18,35.87,21.18,35.87Z"/>
</svg>